<?xml version="1.0" standalone="no"?> <!DOCTYPE svg PUBLIC "-//W3C//DTD SVG 1.0//EN" "http://www.w3.org/TR/2001/REC-SVG-20010904/DTD/svg10.dtd" > <svg xmlns="http://www.w3.org/2000/svg" width="100%" height="100%">
<defs >
<font id="news-gothic-mt-regular" horiz-adv-x="977" ><font-face
    font-family="News Gothic MT"
    units-per-em="2048"
    panose-1="2 11 5 4 2 2 3 2 2 4"
    ascent="2013"
    descent="-463"
    alphabetic="0" />
<missing-glyph horiz-adv-x="1536" d="M0 0V1280H1024V0H0ZM32 32H992V1248H32V32Z" />
<glyph unicode=" " glyph-name="space" horiz-adv-x="640" />
<glyph unicode="!" glyph-name="exclam" horiz-adv-x="641" d="M204 1516H423L371 466H255L204 1516ZM215 227H412V0H215V227Z" />
<glyph unicode="&quot;" glyph-name="quotedbl" horiz-adv-x="575" d="M80 1545H229V1308L199 1036H110L80 1308V1545ZM345 1545H496V1308L465 1036H376L345 1308V1545Z" />
<glyph unicode="#" glyph-name="numbersign" horiz-adv-x="1366" d="M88 972H414L500 1377H622L535 972H957L1042 1377H1164L1078 972H1276V850H1054L977 479H1276V356H953L869 -46H745L831 356H407L325 -46H201L286 356H88V479H312L389 850H88V972ZM511 850L433
481H856L933 850H511Z" />
<glyph unicode="$" glyph-name="dollar" horiz-adv-x="1280" d="M590 1617H722V1516Q866 1485 957 1431T1131 1274L1015 1190Q932 1281 863 1320T722 1366V846Q860 808 932 769Q1049 704 1110 614T1172 410Q1172 304 1114 203T935 37Q844 -12 722 -21V-273H590V-21Q509
-17 451 -1T334 53T217 149Q176 191 109 279L238 355Q318 237 397 187T590 125V722Q444 771 366 819Q254 888 204 966T154 1132Q154 1222 209 1310T384 1457Q464 1497 590 1516V1617ZM590 892V1369Q449 1351 377 1283T304 1137Q304 1066 364 1003T590 892ZM722
677V131Q816 141 881 176T983 277T1021 403Q1021 489 953 563T722 677Z" />
<glyph unicode="%" glyph-name="percent" horiz-adv-x="1921" d="M1465 1516H1582L467 -430H346L1357 1320Q1243 1275 1142 1246T840 1173Q865 1126 865 1046Q865 886 763 731Q632 531 443 531Q301 531 205 631T108 897Q108 1029 172 1163T326 1351T515 1405Q587
1405 662 1369T797 1259Q1056 1308 1195 1363T1465 1516ZM442 649Q512 649 567 690Q647 749 697 855T747 1043Q747 1147 678 1217T509 1287Q376 1287 301 1161T226 898Q226 786 291 718T442 649ZM1466 541Q1617 541 1719 440T1822 198Q1822 17 1701 -156T1404 -329Q1260
-329 1165 -229T1069 41Q1069 209 1161 356Q1278 541 1466 541ZM1401 -215Q1530 -215 1628 -58Q1706 65 1706 181Q1706 284 1638 354T1473 424Q1343 424 1265 299T1187 42Q1187 -77 1249 -146T1401 -215Z" />
<glyph unicode="&amp;" glyph-name="ampersand" horiz-adv-x="1493" d="M453 873Q394 970 374 1029Q346 1112 346 1192Q346 1350 440 1447T684 1545Q829 1545 917 1460T1005 1242Q1005 1182 984 1126T913 1012T804 907L676 819Q682 811 713 767Q843 579 1041 369Q1098
446 1139 552T1192 753H1354Q1337 649 1305 550T1229 361Q1215 332 1162 256Q1290 146 1423 139V-24Q1328 -18 1246 17T1058 136Q988 66 877 18T612 -30Q345 -30 200 133Q92 254 92 410Q92 544 177 655T453 873ZM590 955Q602 964 636 986Q758 1069 801 1133T844
1259Q844 1316 798 1361T690 1406Q617 1406 560 1344T502 1189Q502 1143 519 1095T590 955ZM539 737Q409 655 367 622Q311 577 281 522T251 404Q251 296 355 206T620 116Q702 116 773 144T938 245Q746 436 539 737Z" />
<glyph unicode="&apos;" glyph-name="quotesingle" horiz-adv-x="449" d="M150 1545H298V1306L272 1039H181L150 1306V1545Z" />
<glyph unicode="(" glyph-name="parenleft" horiz-adv-x="748" d="M591 1526L673 1422Q475 1256 378 1077Q249 837 249 550Q249 354 309 181T475 -129Q543 -219 673 -325L591 -431Q438 -305 354 -199Q233 -46 158 147T83 547Q83 745 153 935T346 1282Q431 1391 591 1526Z" />
<glyph unicode=")" glyph-name="parenright" horiz-adv-x="748" d="M78 1426L161 1530Q293 1426 382 1317T538 1082T635 838T667 570Q667 360 599 167T399 -194Q312 -305 161 -429L78 -324Q205 -216 277 -124Q382 11 443 180T505 549Q505 758 440 934T271 1242Q204
1327 78 1426Z" />
<glyph unicode="*" glyph-name="asterisk" horiz-adv-x="961" d="M50 1188L436 1137L199 1451L330 1523L477 1162L630 1523L757 1451L521 1137L908 1188V1043L521 1089L757 777L630 705L477 1065L330 705L199 777L436 1089L50 1043V1188Z" />
<glyph unicode="+" glyph-name="plus" horiz-adv-x="1366" d="M138 727H615V1207H746V727H1227V596H746V121H615V596H138V727Z" />
<glyph unicode="," glyph-name="comma" horiz-adv-x="641" d="M223 230H419V0L269 -302H186L319 0H223V230Z" />
<glyph unicode="-" glyph-name="hyphen" horiz-adv-x="641" d="M178 612H463V464H178V612Z" />
<glyph unicode="." glyph-name="period" horiz-adv-x="641" d="M217 228H415V0H217V228Z" />
<glyph unicode="/" glyph-name="slash" horiz-adv-x="1087" d="M840 1516H976L247 0H111L840 1516Z" />
<glyph unicode="0" glyph-name="zero" horiz-adv-x="1280" d="M639 -30Q412 -30 270 144Q97 354 97 751Q97 1157 272 1374Q410 1545 634 1545Q807 1545 935 1443T1125 1160T1187 757Q1187 579 1147 429T1047 191T919 57T774 -10T639 -30ZM644 119Q827 119 925
299T1023 760Q1023 1044 925 1223T645 1402Q454 1402 358 1220T261 754Q261 546 315 394T461 180T644 119Z" />
<glyph unicode="1" glyph-name="one" horiz-adv-x="1280" d="M579 1516H725V132H969V0H304V132H579V1346Q373 1300 304 1299V1410Q480 1436 579 1516Z" />
<glyph unicode="2" glyph-name="two" horiz-adv-x="1280" d="M149 1118Q191 1240 247 1315Q332 1426 446 1485T679 1545Q869 1545 1001 1415T1134 1097Q1134 991 1094 914T971 757T685 534T404 304T293 133H1140V0H137V121Q137 162 180 240Q241 351 346 451T644
687Q783 786 835 833Q907 901 939 965T972 1097Q972 1226 888 1313T684 1401Q556 1401 459 1320T287 1083L149 1118Z" />
<glyph unicode="3" glyph-name="three" horiz-adv-x="1280" d="M177 1313Q274 1429 399 1487T664 1545Q874 1545 1003 1426T1132 1149Q1132 1047 1069 957T868 804Q994 758 1065 678Q1161 569 1161 429Q1161 319 1096 209T910 35T644 -30Q520 -30 412 16T219 140Q165
190 111 274L232 357Q328 233 436 176T648 119Q796 119 895 210T995 416Q995 492 941 567T766 688T518 733Q488 733 430 729L443 880H543Q764 880 866 961T969 1150Q969 1248 881 1325T654 1403Q472 1403 297 1232L177 1313Z" />
<glyph unicode="4" glyph-name="four" horiz-adv-x="1280" d="M693 1516H925V508H1208V360H925V0H781V360H71V508L693 1516ZM781 1398L229 508H781V1398Z" />
<glyph unicode="5" glyph-name="five" horiz-adv-x="1280" d="M263 1516H1053L1042 1373H385L348 876Q519 1014 691 1014Q875 1014 1004 873T1133 501Q1133 354 1065 230T879 38T630 -30Q522 -30 422 12T247 126Q194 175 138 264L263 332Q353 217 436 169T626
121Q772 121 871 227T970 510Q970 670 875 771T644 872Q548 872 470 824T317 678L204 723L263 1516Z" />
<glyph unicode="6" glyph-name="six" horiz-adv-x="1280" d="M276 738Q354 840 472 896T718 953Q918 953 1043 826T1169 493Q1169 313 1069 167Q935 -30 686 -30Q528 -30 394 55T184 310T109 710Q109 954 195 1155T436 1451T771 1545Q933 1545 1094 1447L1004
1336Q870 1403 760 1403Q557 1403 417 1238T276 738ZM288 552Q309 419 352 339Q413 226 508 167Q580 122 679 122Q823 122 923 227T1024 491Q1024 634 935 723T707 813Q588 813 484 748T288 552Z" />
<glyph unicode="7" glyph-name="seven" horiz-adv-x="1280" d="M167 1516H1118V1371L466 0H310L964 1371H167V1516Z" />
<glyph unicode="8" glyph-name="eight" horiz-adv-x="1280" d="M794 803Q939 752 1015 701Q1116 634 1162 555T1209 384Q1209 222 1073 108Q909 -30 637 -30Q366 -30 221 94T75 380Q75 470 122 558T262 714Q327 761 446 803Q286 879 212 966T138 1166Q138 1316
272 1430T652 1545Q884 1545 1012 1432T1140 1166Q1140 1051 1050 948T794 803ZM642 861Q790 928 851 965T944 1050T976 1154Q976 1252 890 1326T639 1400Q474 1400 388 1328T302 1161Q302 1084 366 1018T642 861ZM572 751Q401 688 320 588T239 388Q239 284 341
203T646 122Q765 122 863 162T1003 265T1044 386Q1044 462 975 533Q884 627 572 751Z" />
<glyph unicode="9" glyph-name="nine" horiz-adv-x="1280" d="M1006 778Q913 676 802 622T557 568Q369 568 240 700T111 1028Q111 1159 177 1284T357 1477T600 1545Q745 1545 883 1461T1097 1204T1173 801Q1173 551 1084 353T843 63T524 -30Q357 -30 187 72L278
187Q404 119 524 119Q628 119 720 167T876 301T969 496T1006 778ZM996 978Q976 1096 939 1170Q881 1286 793 1343T605 1400Q440 1400 350 1283T260 1030Q260 889 348 799T575 709Q701 709 806 776T996 978Z" />
<glyph unicode=":" glyph-name="colon" horiz-adv-x="641" d="M217 1075H415V852H217V1075ZM217 228H415V0H217V228Z" />
<glyph unicode=";" glyph-name="semicolon" horiz-adv-x="641" d="M218 1082H414V855H218V1082ZM218 232H414V6L263 -300H180L315 0H218V232Z" />
<glyph unicode="&lt;" glyph-name="less" horiz-adv-x="1366" d="M1225 147L140 604V723L1225 1179V1037L316 664L1225 289V147Z" />
<glyph unicode="=" glyph-name="equal" horiz-adv-x="1366" d="M140 966H1226V834H140V966ZM140 497H1226V366H140V497Z" />
<glyph unicode="&gt;" glyph-name="greater" horiz-adv-x="1366" d="M140 1179L1225 721V603L140 147V289L1049 662L140 1037V1179Z" />
<glyph unicode="?" glyph-name="question" horiz-adv-x="854" d="M85 1319Q162 1435 256 1490T443 1545Q571 1545 662 1451T754 1218Q754 1130 712 1042T573 841T457 678Q433 610 432 467H303Q299 530 299 565Q299 672 330 749T432 903Q525 1004 561 1076T598
1212Q598 1286 547 1338T425 1391Q373 1391 329 1363T215 1242L85 1319ZM283 228H482V0H283V228Z" />
<glyph unicode="@" glyph-name="at" horiz-adv-x="2068" d="M1161 216Q1096 140 1016 95T854 49Q765 49 681 101T545 261T492 498Q492 658 573 817T776 1056T1011 1136Q1098 1136 1177 1091T1313 952L1347 1108H1526L1382 436Q1352 297 1352 281Q1352 254 1372
235T1422 215Q1475 215 1561 276Q1675 356 1741 490T1808 769Q1808 935 1723 1080T1468 1312T1093 1400Q859 1400 666 1290T366 976T259 537Q259 293 365 116T673 -145T1120 -230Q1382 -230 1559 -143T1824 72H2005Q1954 -33 1830 -142T1535 -315T1123 -378Q901
-378 714 -321T394 -150T195 114Q111 302 111 521Q111 765 211 986Q333 1257 557 1401T1102 1545Q1497 1545 1726 1313T1956 766Q1956 475 1763 262T1354 49Q1285 49 1243 69T1180 129Q1167 155 1161 216ZM677 487Q677 350 742 274T891 198Q947 198 1009 231T1127
330T1220 498T1256 701Q1256 838 1189 913T1024 988Q934 988 852 917T723 717T677 487Z" />
<glyph unicode="A" glyph-name="A" horiz-adv-x="1300" d="M536 1516H772L1258 0H1110L957 470H346L193 0H44L536 1516ZM654 1416L393 617H910L654 1416Z" />
<glyph unicode="B" glyph-name="B" horiz-adv-x="1450" d="M221 1516H742Q1010 1516 1148 1400T1286 1133Q1286 1029 1218 936T1010 783Q1170 722 1248 621T1326 408Q1326 252 1180 126T770 0H221V1516ZM367 1382V843H642Q914 843 1018 922T1123 1117Q1123 1226
1030 1304T750 1382H367ZM367 713V134H765Q953 134 1076 234Q1162 304 1162 423Q1162 506 1112 573T958 676T722 713H367Z" />
<glyph unicode="C" glyph-name="C" horiz-adv-x="1386" d="M1311 451Q1273 307 1209 217Q1125 98 1000 34T735 -30Q566 -30 427 62T204 337T121 762Q121 979 196 1168T412 1451T725 1545Q877 1545 990 1488T1190 1309Q1254 1220 1289 1083L1131 1058Q1083 1235
979 1322T737 1409Q550 1409 430 1264Q285 1089 285 768Q285 437 432 256Q554 107 736 107Q847 107 936 159T1085 306Q1123 367 1152 481L1311 451Z" />
<glyph unicode="D" glyph-name="D" horiz-adv-x="1493" d="M219 1516H654Q985 1516 1177 1319T1370 772Q1370 593 1323 443Q1288 330 1224 248T1079 111Q1020 72 939 44Q807 0 602 0H219V1516ZM364 1384V134H685Q875 134 1020 256Q1204 409 1204 757Q1204 1112
1015 1268Q875 1384 662 1384H364Z" />
<glyph unicode="E" glyph-name="E" horiz-adv-x="1280" d="M221 1516H1114V1372H368V877H923V731H368V146H1186V0H221V1516Z" />
<glyph unicode="F" glyph-name="F" horiz-adv-x="1174" d="M215 1516H1098V1370H361V875H906V728H361V0H215V1516Z" />
<glyph unicode="G" glyph-name="G" horiz-adv-x="1473" d="M1162 193Q1076 83 971 27T726 -30Q466 -30 305 156Q117 371 117 754Q117 1139 297 1342T737 1545Q882 1545 1007 1483T1212 1307Q1269 1226 1307 1085L1147 1053Q1118 1154 1082 1212Q1023 1307 938
1359T749 1411Q561 1411 421 1246T281 766Q281 576 340 418T509 183T743 106Q843 106 932 151T1072 263T1143 405T1162 585H784V731H1307V0H1162V193Z" />
<glyph unicode="H" glyph-name="H" horiz-adv-x="1516" d="M209 1516H355V875H1159V1516H1306V0H1159V726H355V0H209V1516Z" />
<glyph unicode="I" glyph-name="I" horiz-adv-x="662" d="M257 1516H404V0H257V1516Z" />
<glyph unicode="J" glyph-name="J" horiz-adv-x="1024" d="M669 1516H815V448Q815 241 708 106T412 -30Q287 -30 197 28T38 195L164 266Q263 116 413 116Q520 116 594 200T669 448V1516Z" />
<glyph unicode="K" glyph-name="K" horiz-adv-x="1366" d="M218 1516H365V735L1073 1516H1264L742 941L1335 0H1168L644 832L365 526V0H218V1516Z" />
<glyph unicode="L" glyph-name="L" horiz-adv-x="1174" d="M224 1516H370V149H1100V0H224V1516Z" />
<glyph unicode="M" glyph-name="M" horiz-adv-x="1812" d="M218 1516H466L908 295L1347 1516H1595V0H1450V1379L950 0H863L365 1379V0H218V1516Z" />
<glyph unicode="N" glyph-name="N" horiz-adv-x="1556" d="M216 1516H446L1196 277V1516H1342V0H1196L363 1384V0H216V1516Z" />
<glyph unicode="O" glyph-name="O" horiz-adv-x="1493" d="M752 -30Q489 -30 318 162Q118 388 118 745Q118 971 198 1164T427 1451T753 1545Q907 1545 1026 1477T1221 1299T1337 1050T1376 754Q1376 582 1334 454T1233 239T1112 102Q1032 35 932 3T752 -30ZM737
107Q933 107 1072 270T1212 748Q1212 1080 1059 1268Q939 1414 746 1414Q558 1414 421 1249T284 754Q284 430 419 269T737 107Z" />
<glyph unicode="P" glyph-name="P" horiz-adv-x="1386" d="M221 1516H723Q987 1516 1125 1395T1264 1109Q1264 1013 1227 940T1118 809T945 719T697 685H367V0H221V1516ZM365 1385V817H686Q909 817 1003 896T1097 1103Q1097 1249 972 1326Q876 1385 665 1385H365Z" />
<glyph unicode="Q" glyph-name="Q" horiz-adv-x="1493" d="M822 -22Q823 -82 846 -126T905 -198Q933 -218 995 -237T1131 -256H1258V-400H1142Q995 -400 890 -355T730 -219T675 -22Q538 -8 409 82T198 354T117 744Q117 914 167 1074T302 1336T497 1491T739 1545Q916
1545 1060 1455T1290 1177T1376 749Q1376 532 1301 359T1095 88T822 -22ZM739 105Q935 105 1073 268T1211 756Q1211 1086 1061 1268Q941 1414 747 1414Q560 1414 422 1247T283 755Q283 434 431 254Q554 105 739 105Z" />
<glyph unicode="R" glyph-name="R" horiz-adv-x="1386" d="M218 1516H682Q881 1516 1002 1469T1192 1323T1262 1103Q1262 972 1180 871T929 718L1297 0H1139L782 688H365V0H218V1516ZM365 1385V818H688Q806 818 922 857Q1006 885 1051 951T1097 1106Q1097 1228
1009 1306T742 1385H365Z" />
<glyph unicode="S" glyph-name="S" horiz-adv-x="1323" d="M275 425Q300 335 331 286Q383 205 468 157T674 108Q843 108 939 194T1036 400Q1036 508 949 584Q882 641 679 699Q405 778 288 882Q171 985 171 1137Q171 1304 301 1424T644 1545Q773 1545 887 1497T1078
1354Q1131 1288 1162 1182L1009 1135Q970 1270 875 1342T646 1414Q505 1414 419 1337T333 1155Q333 1069 403 999Q472 929 707 861Q986 781 1092 676Q1197 570 1197 409Q1197 227 1054 99T674 -30Q526 -30 403 28T203 191Q150 261 117 383L275 425Z" />
<glyph unicode="T" glyph-name="T" horiz-adv-x="1260" d="M81 1516H1192V1371H712V0H565V1371H81V1516Z" />
<glyph unicode="U" glyph-name="U" horiz-adv-x="1516" d="M205 1516H351V524Q351 337 457 229T747 121Q891 121 981 170T1117 315T1162 524V1516H1310V524Q1310 270 1162 120T765 -30Q565 -30 435 54T255 266T205 503V1516Z" />
<glyph unicode="V" glyph-name="V" horiz-adv-x="1280" d="M53 1516H202L641 240L1078 1516H1226L707 0H572L53 1516Z" />
<glyph unicode="W" glyph-name="W" horiz-adv-x="1812" d="M53 1516H198L514 308L833 1516H983L1299 308L1617 1516H1760L1361 0H1234L907 1246L579 0H447L53 1516Z" />
<glyph unicode="X" glyph-name="X" horiz-adv-x="1300" d="M122 1516H289L649 944L1011 1516H1179L733 811L1248 0H1082L649 679L218 0H53L565 811L122 1516Z" />
<glyph unicode="Y" glyph-name="Y" horiz-adv-x="1237" d="M51 1516H213L618 814L1024 1516H1186L692 659V0H545V659L51 1516Z" />
<glyph unicode="Z" glyph-name="Z" horiz-adv-x="1260" d="M164 1516H1163V1370L267 147H1163V0H95V147L994 1370H164V1516Z" />
<glyph unicode="[" glyph-name="bracketleft" horiz-adv-x="748" d="M152 1516H669V1430H297V-314H669V-409H152V1516Z" />
<glyph unicode="\" glyph-name="backslash" horiz-adv-x="1087" d="M246 1516L978 0H842L110 1516H246Z" />
<glyph unicode="]" glyph-name="bracketright" horiz-adv-x="748" d="M81 1516H596V-409H81V-315H451V1428H81V1516Z" />
<glyph unicode="^" glyph-name="asciicircum" horiz-adv-x="1343" d="M671 1545L1119 1007L1054 954L671 1415L287 954L224 1007L671 1545Z" />
<glyph unicode="_" glyph-name="underscore" horiz-adv-x="1024" d="M-12 -154H1036V-256H-12V-154Z" />
<glyph unicode="`" glyph-name="grave" horiz-adv-x="682" d="M5 1473H268L534 1161H406L5 1473Z" />
<glyph unicode="a" glyph-name="a" horiz-adv-x="1153" d="M137 889Q240 996 360 1046T595 1097Q728 1097 821 1038T951 892Q978 825 978 713V257Q978 121 1009 0H860Q833 95 831 180Q731 79 628 29T416 -22Q279 -22 195 60T111 268Q111 370 176 459T378 599Q478
636 831 713V780Q831 865 772 922T621 979Q539 979 451 939T244 798L137 889ZM831 264V606Q588 548 511 521Q388 479 331 413T273 271Q273 200 322 154T455 107Q534 107 628 146T831 264Z" />
<glyph unicode="b" glyph-name="b" horiz-adv-x="1260" d="M194 1516H339V938Q410 1010 511 1053T706 1097Q888 1097 1020 947T1153 538Q1153 374 1094 242T927 44T701 -22Q611 -22 526 15T339 141V0H194V1516ZM339 268Q451 179 530 146T690 112Q822 112 915 221T1008
543Q1008 752 914 860T680 968Q595 968 510 929T339 809V268Z" />
<glyph unicode="c" glyph-name="c" horiz-adv-x="1087" d="M998 261Q925 130 838 65Q722 -22 577 -22Q451 -22 341 46T170 243T109 539Q109 796 246 946T578 1097Q709 1097 816 1028T998 821L871 752Q810 865 739 920T576 976Q445 976 350 864T254 530Q254 334
350 220T572 106Q761 106 871 331L998 261Z" />
<glyph unicode="d" glyph-name="d" horiz-adv-x="1260" d="M920 1516H1065V335Q1065 243 1077 145T1104 0H954Q930 83 929 149Q832 64 738 21T551 -22Q369 -22 239 125T108 534Q108 801 239 949T553 1097Q646 1097 734 1058T920 932V1516ZM920 806Q830 886 743
925T572 965Q435 965 344 859T253 543Q253 324 346 216T573 107Q655 107 742 147T920 269V806Z" />
<glyph unicode="e" glyph-name="e" horiz-adv-x="1110" d="M1015 241Q916 108 804 43T572 -22Q382 -22 246 127T110 544Q110 801 244 949T559 1097Q679 1097 790 1027T956 836T1015 524H256Q261 396 295 314Q340 206 416 157T563 107Q741 107 896 325L1015 241ZM863
655Q847 807 760 893T562 980Q428 980 348 878T262 655H863Z" />
<glyph unicode="f" glyph-name="f" horiz-adv-x="662" d="M248 1075V1243Q248 1367 328 1441T552 1516Q584 1516 629 1513V1376Q585 1381 557 1381Q477 1381 435 1340T393 1230V1075H615V942H393V0H248V942H47V1075H248Z" />
<glyph unicode="g" glyph-name="g" horiz-adv-x="1174" d="M278 429Q207 491 175 557T143 712Q143 878 260 987T579 1097Q662 1097 736 1075T875 1008Q983 1072 1148 1075V947L1096 948Q1002 948 949 924Q1002 834 1002 725Q1002 555 885 443T567 331Q505 331
423 345Q384 352 366 352Q320 352 294 329T267 275Q267 238 312 215Q333 205 447 201Q723 191 854 148T1038 32T1091 -127Q1091 -214 1035 -286T867 -394T631 -431Q458 -431 315 -384Q206 -347 148 -274T89 -120Q89 -58 121 -2T219 107Q167 141 147 172T127 244Q127
297 161 341T278 429ZM572 464Q708 464 790 541T872 725Q872 826 795 898T580 970Q434 970 355 899T276 719Q276 611 356 538T572 464ZM345 61Q276 22 242 -21T207 -110Q207 -173 279 -221Q390 -296 598 -296Q806 -296 895 -235Q958 -192 958 -125Q958 -45 844
-2T345 61Z" />
<glyph unicode="h" glyph-name="h" horiz-adv-x="1217" d="M191 1516H337V956Q522 1049 600 1073T752 1097Q882 1097 964 1007T1047 739V0H901V772Q901 865 853 913T716 962Q638 962 544 930T337 832V0H191V1516Z" />
<glyph unicode="i" glyph-name="i" horiz-adv-x="575" d="M215 1502H361V1327H215V1502ZM215 1075H361V0H215V1075Z" />
<glyph unicode="j" glyph-name="j" horiz-adv-x="555" d="M215 1502H360V1326H215V1502ZM215 1075H360V-127Q360 -268 288 -350T108 -432Q89 -432 54 -427V-264Q79 -268 93 -268Q145 -268 174 -233Q215 -184 215 -112V1075Z" />
<glyph unicode="k" glyph-name="k" horiz-adv-x="1110" d="M189 1516H335V527L823 1075H1015L659 699L1050 0H888L569 604L335 356V0H189V1516Z" />
<glyph unicode="l" glyph-name="l" horiz-adv-x="575" d="M215 1516H361V0H215V1516Z" />
<glyph unicode="m" glyph-name="m" horiz-adv-x="1921" d="M344 905Q531 1030 617 1063T783 1097Q872 1097 936 1051T1036 905Q1223 1031 1308 1064T1477 1097Q1589 1097 1657 1033Q1751 943 1751 800V0H1604V757Q1604 851 1555 907T1437 964Q1375 964 1290 928T1047
778V0H901V757Q901 853 853 908T742 964Q673 964 589 929T344 778V0H196V1075H344V905Z" />
<glyph unicode="n" glyph-name="n" horiz-adv-x="1217" d="M336 951Q454 1021 564 1059T744 1097Q821 1097 886 1065T1000 953T1048 755V0H902V744Q902 855 853 909T720 963Q643 963 547 930T336 830V0H190V1075H336V951Z" />
<glyph unicode="o" glyph-name="o" horiz-adv-x="1174" d="M601 -22Q394 -22 253 129T112 535Q112 705 174 836T349 1032T587 1097Q709 1097 820 1031T997 830T1062 529Q1062 276 925 127T601 -22ZM588 102Q720 102 817 216T915 543Q915 753 820 863T591 973Q449
973 353 861T256 541Q256 328 353 215T588 102Z" />
<glyph unicode="p" glyph-name="p" horiz-adv-x="1260" d="M338 939Q426 1018 517 1057T704 1097Q823 1097 930 1029T1095 828T1152 536Q1152 369 1093 239T927 43T704 -22Q609 -22 518 19T338 141V-409H193V1075H338V939ZM338 268Q433 190 522 151T695 112Q822
112 914 221T1007 547Q1007 755 913 862T684 970Q605 970 519 931T338 811V268Z" />
<glyph unicode="q" glyph-name="q" horiz-adv-x="1260" d="M922 139Q832 59 740 19T555 -22Q372 -22 240 127T107 542Q107 799 241 948T554 1097Q647 1097 729 1062T922 933V1075H1069V-409H922V139ZM922 805Q820 893 738 930T566 968Q438 968 346 860T254 533Q254
320 344 215T563 110Q654 110 744 150T922 270V805Z" />
<glyph unicode="r" glyph-name="r" horiz-adv-x="831" d="M343 832Q433 970 531 1034T756 1098Q770 1098 796 1097L775 936L722 939Q664 942 592 912T464 815T375 651T343 478V0H197V1075H343V832Z" />
<glyph unicode="s" glyph-name="s" horiz-adv-x="1044" d="M206 623Q127 706 127 808Q127 926 224 1011T494 1097Q609 1097 711 1055T886 931L775 838Q713 909 647 942T496 976Q387 976 331 929T274 820Q274 767 318 725Q361 683 520 642Q765 579 850 489Q935
399 935 291Q935 162 834 70T557 -22Q429 -22 321 26T93 186L218 274Q308 184 387 146T554 107Q666 107 727 160T789 286Q789 346 743 389Q678 450 482 501Q361 533 281 572Q241 591 206 623Z" />
<glyph unicode="t" glyph-name="t" horiz-adv-x="748" d="M258 1467H402V1075H669V942H402V274Q402 191 446 145T564 98Q604 98 669 114V-17Q594 -26 543 -26Q389 -26 324 38T258 248V942H70V1075H258V1467Z" />
<glyph unicode="u" glyph-name="u" horiz-adv-x="1217" d="M169 1075H315V370Q315 253 372 187T509 121Q580 121 664 159T877 305V1075H1024V0H877V173Q755 76 654 27T472 -22Q394 -22 326 13T213 130T169 343V1075Z" />
<glyph unicode="v" glyph-name="v" horiz-adv-x="981" d="M44 1075H193L490 212L788 1075H937L565 0H416L44 1075Z" />
<glyph unicode="w" glyph-name="w" horiz-adv-x="1493" d="M50 1075H191L438 293L687 1075H799L1052 273L1303 1075H1444L1101 0H998L743 814L487 0H389L50 1075Z" />
<glyph unicode="x" glyph-name="x" horiz-adv-x="1024" d="M72 1075H241L512 682L780 1075H949L596 557L974 0H807L512 433L219 0H50L428 557L72 1075Z" />
<glyph unicode="y" glyph-name="y" horiz-adv-x="1044" d="M50 1075H200L533 197L865 1075H1016L584 -69Q520 -237 489 -285T412 -366T302 -417T153 -436Q93 -436 13 -419L50 -280Q109 -291 153 -291Q274 -291 331 -247T439 -50Q449 -21 457 0L50 1075Z" />
<glyph unicode="z" glyph-name="z" horiz-adv-x="1067" d="M140 1075H958V932L275 147H989V0H86V147L773 932H140V1075Z" />
<glyph unicode="{" glyph-name="braceleft" horiz-adv-x="682" d="M57 636Q134 638 182 678T247 786T264 1023T270 1244Q280 1331 306 1382T369 1463T464 1507Q498 1516 580 1516H636V1359H605Q501 1359 467 1322T433 1153V1005Q433 791 386 701T224 555Q334 508
383 414T433 104V-44Q433 -148 451 -186T504 -237T636 -249V-406H580Q481 -406 437 -390Q373 -367 332 -315T278 -184T264 74T247 322T183 431T57 473V636Z" />
<glyph unicode="|" glyph-name="bar" horiz-adv-x="1087" d="M478 1516H610V-409H478V1516Z" />
<glyph unicode="}" glyph-name="braceright" horiz-adv-x="682" d="M626 636V473Q549 471 501 431T436 323T419 87T413 -135Q403 -222 377 -273T314 -354T219 -398Q185 -406 103 -406H47V-249H78Q182 -249 216 -212T250 -44V104Q250 319 299 413T459 555Q344 610
297 700T250 1005V1153Q250 1284 216 1321T78 1359H47V1516H103Q202 1516 246 1499Q310 1477 351 1425T405 1294T419 1036T436 787T500 678T626 636Z" />
<glyph unicode="~" glyph-name="asciitilde" horiz-adv-x="1343" d="M1213 701Q1060 573 929 573Q872 573 817 589T625 670T424 735Q296 735 131 598V741Q211 806 289 836T424 866Q475 866 532 850T722 769T924 705Q987 705 1055 736T1213 846V701Z" />
</font>
</defs>
</svg>
